<?xml version="1.0" standalone="no"?>
<!DOCTYPE svg PUBLIC "-//W3C//DTD SVG 20010904//EN"
 "http://www.w3.org/TR/2001/REC-SVG-20010904/DTD/svg10.dtd">
<svg version="1.0" xmlns="http://www.w3.org/2000/svg"
 width="662.000000pt" height="228.000000pt" viewBox="0 0 662.000000 228.000000"
 preserveAspectRatio="xMidYMid meet">

<g transform="translate(0.000000,228.000000) scale(0.100000,-0.100000)"
fill="#000000" stroke="none">
<path d="M1040 2263 c-35 -7 -43 -17 -42 -52 1 -42 -10 -45 -43 -11 -36 38
-62 38 -166 0 -321 -117 -590 -386 -699 -700 -38 -110 -50 -171 -57 -286 -16
-289 92 -584 306 -831 63 -74 129 -126 181 -144 25 -9 34 -7 56 10 15 12 30
21 35 21 4 0 9 -23 11 -52 3 -46 7 -55 36 -74 37 -26 174 -80 224 -89 32 -6
35 -4 67 45 18 28 35 50 37 48 1 -2 5 -27 7 -56 2 -29 7 -56 11 -60 13 -12
313 -15 335 -2 17 9 21 21 22 68 l0 57 22 -29 c12 -16 31 -40 43 -54 l21 -25
73 22 c336 102 651 423 731 744 11 47 29 73 29 42 0 -33 32 -76 73 -97 63 -33
221 -38 314 -9 203 61 327 271 243 409 -24 39 -101 96 -160 118 -62 23 -117
59 -125 83 -9 29 20 78 58 98 47 25 148 24 177 -2 18 -16 21 -27 17 -65 -3
-25 -8 -58 -13 -74 l-7 -29 64 6 c42 5 68 13 76 23 19 26 27 102 14 144 -22
76 -93 104 -237 98 -81 -3 -100 -8 -167 -41 -50 -25 -90 -53 -116 -83 -71 -80
-100 -200 -67 -277 17 -42 77 -94 141 -122 28 -13 66 -35 83 -50 88 -74 -19
-191 -156 -170 -83 12 -104 70 -57 159 35 66 33 70 -25 62 -75 -10 -99 -22
-115 -58 -14 -32 -14 -30 -15 52 l-2 85 -12 -55 c-14 -69 -42 -114 -104 -172
-52 -49 -130 -104 -137 -97 -2 3 1 50 6 104 6 55 8 145 4 201 l-6 101 41 28
c56 39 126 119 142 161 6 19 15 34 19 34 8 0 25 -90 38 -195 l8 -70 2 110 c1
118 -11 175 -64 310 -36 91 -40 95 -86 95 -42 0 -48 12 -24 44 8 11 15 26 15
34 0 19 -117 167 -173 219 -116 107 -237 178 -405 239 -98 36 -109 35 -146 -5
-27 -30 -36 -26 -36 13 0 23 -6 36 -17 41 -21 9 -266 16 -303 8z m120 -43 c0
-23 -1 -24 -35 -8 -34 15 -32 28 5 28 23 0 30 -4 30 -20z m90 12 c0 -12 -49
-37 -56 -29 -4 3 -4 13 -1 22 7 15 57 22 57 7z m-190 -22 c12 -8 11 -10 -7
-10 -13 0 -23 5 -23 10 0 13 11 13 30 0z m264 1 c7 -10 -52 -26 -61 -17 -3 3
5 10 18 15 31 13 37 13 43 2z m-444 -98 l-1 -78 -43 -27 c-24 -16 -48 -28 -53
-28 -14 0 -43 56 -43 83 0 34 34 73 88 102 26 13 48 24 50 25 1 0 2 -35 2 -77z
m652 48 c25 -16 53 -39 62 -52 21 -31 20 -78 -3 -108 l-19 -25 -48 35 -49 35
-3 72 c-2 40 1 72 6 72 4 0 29 -13 54 -29z m-464 3 c29 -8 28 -18 -5 -33 -29
-14 -49 -2 -40 23 7 18 11 19 45 10z m157 -14 c7 -11 -34 -23 -66 -18 -12 2
-24 9 -27 16 -5 15 84 17 93 2z m105 -10 c0 -23 0 -23 -34 -10 -35 13 -33 30
4 30 23 0 30 -4 30 -20z m-604 -22 c-24 -33 -20 -88 9 -130 l25 -37 -41 -33
c-43 -34 -144 -154 -185 -220 -13 -21 -30 -38 -38 -38 -18 0 -94 83 -106 116
-13 33 -13 84 1 122 13 38 139 140 247 199 89 49 111 54 88 21z m967 -9 c80
-40 170 -105 226 -163 39 -40 45 -52 49 -99 5 -63 -9 -96 -65 -152 -37 -37
-37 -37 -53 -16 -62 87 -136 175 -189 223 l-62 58 22 29 c25 34 28 91 5 126
-22 33 -8 31 67 -6z m-625 -53 c-18 -25 -37 -45 -41 -46 -5 0 -7 15 -5 33 2
25 10 36 37 49 19 10 37 16 39 13 2 -2 -11 -24 -30 -49z m227 40 c31 -13 35
-19 35 -50 0 -20 -3 -36 -7 -36 -9 1 -73 83 -73 93 0 10 6 9 45 -7z m-135
-105 c0 -61 -4 -112 -9 -116 -5 -3 -35 -2 -65 1 -72 9 -82 33 -41 97 40 59 96
127 106 127 5 0 9 -49 9 -109z m141 -13 c17 -27 29 -57 27 -70 -3 -19 -11 -24
-58 -31 -30 -4 -60 -5 -67 -3 -14 6 -19 206 -6 220 9 9 60 -48 104 -116z
m-418 -20 c-6 -31 -20 -35 -47 -15 -17 13 -17 15 9 36 33 25 46 18 38 -21z
m636 21 c26 -21 26 -21 -6 -38 -35 -18 -43 -13 -43 24 0 40 13 44 49 14z
m-684 -71 l45 -22 0 -80 c0 -65 -6 -100 -32 -178 -37 -111 -34 -109 -133 -77
l-65 22 0 116 0 115 62 63 c34 35 66 63 70 63 4 0 28 -10 53 -22z m814 -37
l62 -59 -3 -119 -3 -118 -65 -22 c-36 -13 -73 -22 -84 -20 -13 1 -27 27 -52
97 -30 83 -34 105 -32 174 l3 79 40 23 c22 13 47 23 56 24 9 0 44 -27 78 -59z
m-1299 -46 c0 -49 34 -112 87 -162 l45 -43 -35 -82 c-33 -77 -61 -163 -87
-265 -6 -24 -15 -43 -19 -43 -16 0 -105 76 -134 113 -42 56 -57 100 -57 169 0
55 6 73 43 140 42 78 135 207 150 208 4 0 7 -16 7 -35z m768 15 l42 0 0 -175
0 -176 -67 3 -68 3 -3 165 c-1 90 0 171 3 178 3 9 13 12 28 8 12 -3 41 -6 65
-6z m207 -170 l0 -175 -68 -3 -67 -3 2 173 3 173 50 6 c87 10 80 25 80 -171z
m728 129 c35 -51 36 -52 20 -83 -19 -38 -132 -156 -148 -156 -6 0 -19 15 -27
34 -16 33 -16 34 14 62 51 48 88 114 88 156 0 21 4 38 9 38 4 0 24 -23 44 -51z
m-549 -280 c-3 -5 -12 -9 -20 -9 -10 0 -14 13 -13 53 l0 52 20 -43 c10 -24 16
-48 13 -53z m-622 26 c-2 -19 -8 -35 -13 -35 -17 0 -20 22 -9 56 14 43 28 30
22 -21z m1320 -60 c-1 -78 -54 -166 -132 -220 -47 -33 -56 -28 -65 35 -6 44
-5 46 34 73 50 35 105 101 127 152 14 35 17 37 27 20 5 -10 10 -37 9 -60z
m-492 -107 l0 -151 35 6 c20 3 72 22 118 42 45 20 87 38 93 41 10 5 34 -64 34
-96 0 -21 -284 -130 -338 -130 -15 0 -21 18 -35 103 -10 56 -29 146 -42 201
-14 54 -24 100 -23 101 11 7 145 41 151 38 4 -2 7 -72 7 -155z m-971 135 c31
-9 58 -18 60 -19 1 -2 -8 -51 -23 -111 -14 -59 -33 -150 -42 -200 -9 -53 -21
-93 -28 -93 -42 0 -274 82 -307 109 -19 15 -20 20 -9 64 7 26 17 47 22 47 5 0
28 -10 51 -21 56 -29 174 -69 181 -61 3 3 6 72 6 154 0 168 -6 160 89 131z
m125 -29 c14 -5 16 -34 16 -215 l0 -209 -22 0 c-27 1 -97 16 -104 23 -11 10
63 368 82 398 6 11 8 11 28 3z m667 -36 c18 -69 69 -321 69 -345 0 -28 -3 -30
-72 -38 l-58 -7 0 210 c0 222 -2 214 42 221 4 0 12 -18 19 -41z m-1385 -66
c18 -41 83 -112 146 -158 l49 -36 -6 -112 c-3 -61 -2 -151 3 -201 5 -49 8 -92
6 -94 -7 -8 -116 65 -168 110 -77 69 -109 135 -114 236 -4 81 18 257 40 312
l10 26 10 -25 c6 -14 16 -40 24 -58z m1012 -135 l2 -208 -67 3 -68 3 -3 195
c-1 107 0 200 3 208 3 9 22 12 67 10 l63 -3 3 -208z m170 6 l-3 -208 -67 -3
-68 -3 0 205 c0 154 3 206 13 209 6 3 38 6 70 6 l57 1 -2 -207z m-723 -171
l100 -28 0 -42 c-4 -371 -3 -354 -27 -350 -22 3 -23 8 -25 108 -4 145 -4 145
-60 159 -70 18 -201 70 -218 87 -11 12 -14 29 -9 72 9 87 6 85 76 52 35 -16
108 -42 163 -58z m1399 42 c3 -28 2 -52 -5 -60 -25 -30 -325 -133 -340 -117
-3 5 -9 29 -12 55 l-6 47 102 31 c56 17 131 44 167 60 36 15 70 29 76 29 6 1
14 -20 18 -45z m-1133 -100 c5 -3 9 -93 9 -201 l0 -196 -58 6 c-97 10 -92 3
-92 137 0 64 3 152 7 195 l6 78 59 -7 c33 -3 64 -8 69 -12z m743 -31 c3 -26 3
-50 -1 -54 -12 -12 -127 -28 -136 -19 -5 4 -7 29 -5 56 3 47 4 49 38 55 19 4
49 7 66 8 30 1 32 -1 38 -46z m-459 -188 l0 -200 -60 4 c-33 1 -63 5 -67 8
-10 5 -10 377 -1 387 4 4 34 6 68 4 l60 -3 0 -200z m175 6 l0 -199 -57 -4
c-32 -2 -64 -2 -70 0 -10 3 -13 52 -13 197 0 145 3 195 13 198 6 3 38 6 70 6
l57 1 0 -199z m-1081 -13 c36 -23 76 -47 88 -54 15 -10 25 -31 33 -71 7 -32
30 -107 52 -166 22 -59 39 -110 36 -112 -8 -9 -132 78 -177 124 -52 54 -126
196 -166 316 -14 43 -25 82 -25 88 0 6 21 -10 47 -36 26 -26 76 -66 112 -89z
m1975 36 c-39 -137 -108 -269 -174 -335 -53 -54 -116 -96 -127 -85 -3 2 4 29
15 58 18 48 51 169 66 240 5 20 25 39 77 73 40 26 92 68 118 95 25 27 47 47
49 46 1 -2 -9 -43 -24 -92z m-516 -118 c4 -30 -12 -56 -34 -56 -18 0 -19 76
-1 83 21 9 32 1 35 -27z m-80 -22 c4 -41 -12 -52 -91 -60 l-67 -7 0 40 0 40
58 10 c86 16 97 13 100 -23z m308 -127 c-14 -46 -37 -109 -50 -139 -24 -54
-27 -57 -93 -81 -82 -31 -191 -62 -198 -56 -2 3 3 24 11 48 8 24 22 89 31 145
19 124 28 148 51 144 14 -3 18 -16 20 -76 2 -45 7 -72 14 -72 40 0 225 157
229 194 1 6 3 3 6 -6 2 -10 -7 -55 -21 -101z m-1247 54 c8 -5 19 -47 27 -106
8 -53 22 -126 33 -161 l19 -64 -20 0 c-12 0 -38 5 -59 12 l-39 11 0 159 c0
162 3 172 39 149z m169 -28 c22 -5 22 -8 22 -162 0 -87 -2 -160 -5 -163 -3 -3
-20 -2 -37 1 -25 5 -34 14 -45 46 -21 59 -53 215 -53 259 l0 38 48 -7 c26 -3
57 -9 70 -12z m762 -14 c0 -48 -39 -227 -58 -267 -13 -27 -25 -38 -49 -43 -18
-3 -35 -4 -38 -1 -3 3 -5 76 -5 163 l0 158 33 5 c121 20 117 21 117 -15z
m-502 -9 l42 0 0 -160 c0 -182 3 -177 -82 -163 l-53 8 -3 150 c-1 82 0 155 3
163 3 9 13 12 28 8 12 -3 41 -6 65 -6z m210 -156 l2 -161 -60 -7 c-33 -4 -65
-4 -70 -1 -6 4 -10 71 -10 165 l0 159 53 4 c28 2 59 3 67 3 13 -1 15 -27 18
-162z m-826 -101 c10 -15 18 -32 18 -36 0 -20 -82 43 -140 107 -25 28 -24 28
40 -7 36 -20 73 -49 82 -64z m1458 68 c0 -5 -25 -30 -55 -56 l-56 -47 17 35
c9 19 33 44 53 56 42 24 41 24 41 12z m-150 -100 c-22 -45 -60 -76 -140 -116
-68 -34 -181 -77 -187 -71 -2 2 10 24 27 48 17 23 38 57 45 75 9 22 22 34 42
38 15 4 69 19 118 35 120 37 119 38 95 -9z m-1077 -22 c41 -10 51 -17 69 -53
11 -22 31 -55 44 -73 13 -17 24 -34 24 -37 0 -7 -134 41 -182 65 -36 19 -38
22 -38 70 0 43 2 50 18 45 9 -3 39 -10 65 -17z m135 -28 c8 -5 12 -23 10 -47
l-3 -39 -22 35 c-34 51 -26 77 15 51z m662 1 c0 -4 -12 -25 -27 -47 l-28 -40
-3 39 c-3 40 8 56 41 56 9 0 17 -3 17 -8z m-200 -97 c0 -84 -1 -85 -86 -85
l-54 0 0 80 0 79 58 3 c31 2 63 1 70 -1 8 -2 12 -26 12 -76z m-170 -5 l0 -80
-58 0 c-32 0 -63 5 -70 12 -7 7 -12 40 -12 80 l0 68 70 0 70 0 0 -80z"/>
<path d="M3809 1546 c-230 -66 -430 -339 -429 -586 1 -113 48 -181 151 -215
70 -24 215 -17 281 12 46 21 46 21 51 1 5 -16 13 -19 57 -16 l52 3 69 200 c38
110 69 208 69 218 0 15 -15 17 -171 17 l-170 0 -15 -35 c-24 -58 -20 -65 36
-65 28 0 50 -1 50 -2 0 -21 -77 -209 -92 -225 -28 -30 -65 -37 -95 -17 -24 15
-25 20 -19 73 4 31 27 117 52 191 80 240 138 336 219 360 86 25 120 -20 93
-123 -13 -49 -13 -60 -1 -64 15 -6 130 35 139 49 12 20 6 111 -10 146 -9 21
-33 48 -53 62 -30 21 -49 25 -127 27 -54 1 -110 -3 -137 -11z"/>
<path d="M5955 1542 c-74 -26 -139 -67 -179 -114 -66 -77 -94 -196 -62 -271
17 -42 77 -94 141 -122 107 -48 139 -100 99 -161 -32 -48 -121 -74 -193 -54
-67 18 -79 67 -36 152 14 27 25 54 25 60 0 12 -84 4 -126 -12 -50 -19 -74
-143 -40 -207 9 -19 35 -43 59 -55 37 -20 56 -23 167 -23 106 0 133 4 180 23
119 48 206 144 231 256 23 105 -32 192 -157 251 -33 15 -74 34 -92 43 -19 8
-41 26 -49 39 -15 22 -15 27 0 58 22 47 68 69 143 70 83 0 108 -20 101 -85 -3
-25 -8 -58 -13 -74 l-7 -29 64 6 c73 8 85 18 95 84 8 53 -8 112 -35 137 -52
47 -219 62 -316 28z"/>
<path d="M3066 1154 c-75 -218 -136 -400 -136 -405 0 -6 53 -8 131 -7 l131 3
134 389 c74 213 134 395 134 402 0 11 -26 14 -129 14 l-128 0 -137 -396z"/>
<path d="M4216 1155 c-75 -218 -136 -400 -136 -405 0 -6 98 -10 249 -10 221 0
256 2 314 20 124 38 210 149 211 269 0 52 -2 56 -47 96 l-46 43 32 13 c89 37
151 129 151 227 1 59 -1 66 -31 92 -18 16 -49 34 -70 39 -21 6 -136 11 -264
11 l-226 0 -137 -395z m455 295 c44 -24 2 -175 -62 -222 -23 -17 -109 -38
-109 -26 0 3 18 56 40 119 22 63 43 120 45 127 5 15 59 16 86 2z m-96 -360
c24 -20 19 -98 -10 -156 -30 -61 -76 -93 -144 -101 l-52 -6 42 119 c23 65 46
130 51 143 8 21 13 23 53 19 25 -3 52 -11 60 -18z"/>
<path d="M4967 1155 c-76 -218 -137 -400 -137 -406 0 -6 50 -9 132 -7 l131 3
28 85 c16 47 40 118 55 158 l26 72 82 0 c237 0 398 124 414 317 4 54 2 67 -19
97 -45 66 -66 71 -335 74 l-241 3 -136 -396z m460 279 c21 -21 24 -31 19 -64
-15 -96 -81 -192 -144 -210 -81 -22 -84 -45 33 288 8 22 64 14 92 -14z"/>
<path d="M2105 303 c-52 -12 -99 -89 -89 -142 8 -37 56 -87 91 -94 108 -20
187 109 118 192 -31 36 -79 54 -120 44z m90 -58 c54 -53 15 -145 -61 -145 -77
0 -117 89 -64 145 32 34 91 35 125 0z"/>
<path d="M2084 236 c-3 -7 -4 -35 -2 -62 2 -37 7 -50 21 -52 10 -2 17 3 17 12
0 20 19 21 26 1 4 -8 12 -15 19 -15 18 0 24 87 7 111 -16 23 -80 26 -88 5z"/>
</g>
</svg>
